<svg xmlns="http://www.w3.org/2000/svg" width="20" height="18" viewBox="0 0 20 18"><defs><style>.a{fill:#376dc8;}</style></defs><g transform="translate(-2.5 -7.8)"><path class="a" d="M20.991,65.9H18.775a.573.573,0,0,0-.575.575v1.15a.573.573,0,0,0,.575.575h2.237a.573.573,0,0,0,.575-.575v-1.15A.578.578,0,0,0,20.991,65.9Z" transform="translate(-12.403 -45.724)"/><path class="a" d="M20.991,45.9H18.775a.573.573,0,0,0-.575.575v1.15a.573.573,0,0,0,.575.575h2.237a.573.573,0,0,0,.575-.575v-1.15A.578.578,0,0,0,20.991,45.9Z" transform="translate(-12.403 -29.984)"/><path class="a" d="M68.791,65.9H66.575a.573.573,0,0,0-.575.575v1.15a.573.573,0,0,0,.575.575h2.237a.573.573,0,0,0,.575-.575v-1.15A.606.606,0,0,0,68.791,65.9Z" transform="translate(-50.163 -45.724)"/><path class="a" d="M68.791,45.9H66.575a.573.573,0,0,0-.575.575v1.15a.573.573,0,0,0,.575.575h2.237a.573.573,0,0,0,.575-.575v-1.15A.606.606,0,0,0,68.791,45.9Z" transform="translate(-50.163 -29.984)"/><path class="a" d="M44.891,65.9H42.675a.573.573,0,0,0-.575.575v1.15a.573.573,0,0,0,.575.575h2.237a.573.573,0,0,0,.575-.575v-1.15A.591.591,0,0,0,44.891,65.9Z" transform="translate(-31.283 -45.724)"/><path class="a" d="M44.891,45.9H42.675a.573.573,0,0,0-.575.575v1.15a.573.573,0,0,0,.575.575h2.237a.573.573,0,0,0,.575-.575v-1.15A.591.591,0,0,0,44.891,45.9Z" transform="translate(-31.283 -29.984)"/><path class="a" d="M20.395,9.142H18.289V8.567a.759.759,0,0,0-.758-.767H16.374a.759.759,0,0,0-.758.767v.575H9.384V8.567A.759.759,0,0,0,8.626,7.8H7.468a.759.759,0,0,0-.758.767v.575H4.605A2.124,2.124,0,0,0,2.5,11.272v12.4A2.124,2.124,0,0,0,4.605,25.8H20.395A2.124,2.124,0,0,0,22.5,23.67v-12.4A2.11,2.11,0,0,0,20.395,9.142Zm0,15.486H4.605a.949.949,0,0,1-.947-.959V13.786H21.342v9.863A.968.968,0,0,1,20.395,24.628Z" transform="translate(0 0)"/></g></svg>