<svg xmlns="http://www.w3.org/2000/svg" width="10.82" height="18" viewBox="0 0 10.82 18"><defs><style>.a{fill:#376dc8;}</style></defs><g transform="translate(-24.574 -7.702)"><g transform="translate(24.574 7.702)"><path class="a" d="M29.122,25.7h1.6a.667.667,0,0,0,.665-.665V23.5l.332-.089c2.712-.683,3.674-2.548,3.674-3.936,0-2.571-2.216-3.639-4.388-4.348-2.039-.674-2.69-1.082-2.69-1.684,0-.541.625-1.082,2.026-1.082a6.6,6.6,0,0,1,2.921.629.66.66,0,0,0,.877-.319l.634-1.343a.667.667,0,0,0-.319-.882,8.073,8.073,0,0,0-2.527-.7l-.39-.049V8.362a.663.663,0,0,0-.665-.66H29.3a.666.666,0,0,0-.665.66V9.847l-.332.084c-2.19.554-3.5,1.959-3.5,3.754,0,2.367,2.345,3.422,4.645,4.144,2.123.692,2.411,1.29,2.411,1.786,0,.767-.993,1.325-2.358,1.325a7.431,7.431,0,0,1-3.342-.793.651.651,0,0,0-.315-.08.715.715,0,0,0-.213.036.677.677,0,0,0-.39.359l-.612,1.361a.66.66,0,0,0,.279.847,8.517,8.517,0,0,0,3.151.918l.394.04v1.409A.665.665,0,0,0,29.122,25.7Z" transform="translate(-24.574 -7.702)"/></g></g></svg>