<svg xmlns="http://www.w3.org/2000/svg" width="24" height="15" viewBox="0 0 24 15"><defs><style>.a{fill:#376dc8;}</style></defs><g transform="translate(-5 -22.089)"><path class="a" d="M12.734,39.709c0-.024,0-.048,0-.072a2.909,2.909,0,0,1,1.335-2.6,4.412,4.412,0,0,1,.972-.455l-.325-.076c-.173-.04-.346-.079-.52-.123-.068-.018-.143-.036-.222-.054a6.959,6.959,0,0,1-.773-.215,1,1,0,0,1-.623-.456,1.158,1.158,0,0,1-.036-.576.961.961,0,0,1,.173-.309c.038-.053.076-.108.107-.159a3.908,3.908,0,0,0,.415-.917,2.155,2.155,0,0,0,.052-.237,2.072,2.072,0,0,1,.046-.213,1.244,1.244,0,0,0,.5-.806,1.154,1.154,0,0,0-.071-.98,3.052,3.052,0,0,0-.489-2.1A2.967,2.967,0,0,0,11.3,28.3q-.152-.01-.3-.008c-.1,0-.2,0-.3.008a2.965,2.965,0,0,0-1.976,1.054,3.052,3.052,0,0,0-.489,2.1,1.153,1.153,0,0,0-.071.98,1.244,1.244,0,0,0,.5.806,2.048,2.048,0,0,1,.046.213,2.112,2.112,0,0,0,.052.237,3.889,3.889,0,0,0,.415.916c.03.05.068.105.107.159a.97.97,0,0,1,.173.308,1.161,1.161,0,0,1-.036.576,1,1,0,0,1-.623.456,7,7,0,0,1-.773.215c-.079.019-.155.036-.223.054-.173.044-.347.084-.519.123-1.218.279-2.275.52-2.277,1.911,0,.035,0,.072,0,.109A.322.322,0,0,0,5,38.6c0,.752,2.687,1.362,6,1.362.6,0,1.178-.02,1.724-.057,0-.009,0-.017,0-.027A1.418,1.418,0,0,1,12.734,39.709Z" transform="translate(0 -4.539)"/><path class="a" d="M52.92,35.1c0-1.788-1.363-2.1-2.928-2.457-.222-.051-.445-.1-.668-.158-.088-.023-.184-.046-.286-.07a9,9,0,0,1-.994-.276,1.292,1.292,0,0,1-.8-.586,1.5,1.5,0,0,1-.046-.74,1.246,1.246,0,0,1,.223-.4c.049-.069.1-.139.138-.2a5.024,5.024,0,0,0,.533-1.178,2.706,2.706,0,0,0,.066-.3,2.652,2.652,0,0,1,.059-.274,1.6,1.6,0,0,0,.648-1.036,1.484,1.484,0,0,0-.092-1.26,3.92,3.92,0,0,0-.629-2.7A3.813,3.813,0,0,0,45.6,22.1c-.106-.007-.211-.011-.315-.011h-.143c-.1,0-.209,0-.316.011a3.815,3.815,0,0,0-2.541,1.355,3.921,3.921,0,0,0-.628,2.7,1.482,1.482,0,0,0-.092,1.26,1.6,1.6,0,0,0,.648,1.036,2.738,2.738,0,0,1,.059.274,2.6,2.6,0,0,0,.066.3,5.021,5.021,0,0,0,.533,1.178c.039.064.088.135.137.2a1.236,1.236,0,0,1,.223.4,1.494,1.494,0,0,1-.047.74,1.292,1.292,0,0,1-.8.586,8.872,8.872,0,0,1-.994.276c-.1.024-.2.047-.286.07-.222.057-.446.107-.667.159-1.566.358-2.924.668-2.928,2.457,0,.046,0,.093,0,.141a.411.411,0,0,0-.013.1c0,.967,3.454,1.75,7.715,1.75s7.714-.784,7.714-1.751a.417.417,0,0,0-.013-.1C52.919,35.191,52.92,35.144,52.92,35.1Z" transform="translate(-23.93)"/></g></svg>