<svg xmlns="http://www.w3.org/2000/svg" width="17.996" height="18" viewBox="0 0 17.996 18"><defs><style>.a{fill:#376dc8;}</style></defs><g transform="translate(562.959 774)"><path class="a" d="M34.54,8.564a1.8,1.8,0,1,0-1.8-1.8A1.8,1.8,0,0,0,34.54,8.564Z" transform="translate(-590.157 -778.965)"/><path class="a" d="M19.227,36.573h0l-2.682-3.486h0a1.245,1.245,0,0,0-.193-.2h0l-1.621-1.351h0a.083.083,0,0,1-.026-.064V27.763l1.185.72h0a1.282,1.282,0,0,0,1.067.124h0l2.418-.791h0a1.113,1.113,0,0,0-.69-2.116h0l-2.014.663-2.528-1.511h0a1.058,1.058,0,0,0-.534-.15H11.493a1.282,1.282,0,0,0-.665.191h0L6.377,27.6h0a1.111,1.111,0,0,0,.578,2.06,1.1,1.1,0,0,0,.573-.161h0L10.4,27.751v3.256a.614.614,0,0,1-.1.34h0L8.987,33.293a.432.432,0,0,0-.032.041.085.085,0,0,1-.089.035A.416.416,0,0,0,8.8,33.36l-2.086-.473h0a1.369,1.369,0,1,0-.6,2.671h0l2.611.591h0A2.164,2.164,0,0,0,9.2,36.2a2.123,2.123,0,0,0,1.765-.945h0l1.422-2.111,2.049,1.7h0a.475.475,0,0,1,.07.067h0l2.553,3.324h0a1.363,1.363,0,0,0,1.915.25,1.371,1.371,0,0,0,.253-1.921Z" transform="translate(-568 -794.778)"/><path class="a" d="M76.839,57.607a2.015,2.015,0,1,0,2.015,2.015A2.017,2.017,0,0,0,76.839,57.607Z" transform="translate(-623.818 -821.091)"/></g></svg>