<svg xmlns="http://www.w3.org/2000/svg" width="21" height="18" viewBox="0 0 21 18"><defs><style>.a{fill:#376dc8;}</style></defs><path class="a" d="M20.634,14.608h0L15.94,7.434a1.992,1.992,0,0,0-1.614-.917,1.938,1.938,0,0,0-1.378.537,1.855,1.855,0,0,0-.574,1.338V9.539a.28.28,0,0,1-.281.277H9.555a.28.28,0,0,1-.283-.277V8.446A1.918,1.918,0,0,0,5.749,7.38L1.014,14.608h0a4.3,4.3,0,0,0,0,4.694,4.51,4.51,0,0,0,4.342,2,4.452,4.452,0,0,0,3.693-3,.422.422,0,0,1,.393-.275h2.749a.422.422,0,0,1,.393.275,4.452,4.452,0,0,0,3.693,3,4.51,4.51,0,0,0,4.342-2,4.3,4.3,0,0,0,0-4.694ZM4.8,19.407a2.463,2.463,0,1,1,0-4.926,2.463,2.463,0,1,1,0,4.926Zm12.054,0a2.463,2.463,0,1,1,2.517-2.463,2.437,2.437,0,0,1-.739,1.743,2.545,2.545,0,0,1-1.782.72Zm-6.029,5.11a.969.969,0,1,1,.99-.969.979.979,0,0,1-.99.969Zm2.992,0a.969.969,0,1,1,.99-.969.979.979,0,0,1-.99.969Zm-5.987,0a.969.969,0,1,1,.99-.969.979.979,0,0,1-.99.969Z" transform="translate(-0.318 -6.517)"/></svg>