<svg xmlns="http://www.w3.org/2000/svg" width="19" height="18" viewBox="0 0 19 18"><defs><style>.a{fill:#376dc8;}</style></defs><g transform="translate(0.003 0)"><path class="a" d="M12.846,5.345a.6.6,0,0,0,0-1.029L5.888.087a.8.8,0,0,0-.706-.01C4.993.183,4.747.384,4.747.6V2.027a.833.833,0,0,1-.681.878A4.806,4.806,0,0,0,0,7.567,4.7,4.7,0,0,0,.443,9.529a.272.272,0,0,0,.245.151.266.266,0,0,0,.239-.153A4.737,4.737,0,0,1,3.8,6.962a.693.693,0,0,1,.67.119.772.772,0,0,1,.273.665V9.059c0,.217.245.418.434.525a.788.788,0,0,0,.7-.011Z" transform="translate(0 0)"/><path class="a" d="M22.6,14.033a.269.269,0,0,0-.245-.158.263.263,0,0,0-.242.156,4.449,4.449,0,0,1-2.871,2.541.722.722,0,0,1-.686-.119.78.78,0,0,1-.287-.665V14.476c0-.218-.231-.418-.42-.525a.768.768,0,0,0-.7.011L10.2,18.191a.6.6,0,0,0,0,1.029l6.963,4.228a.768.768,0,0,0,.691.011c.189-.107.421-.307.421-.525V21.508a.846.846,0,0,1,.7-.878,4.812,4.812,0,0,0,4.076-4.663A5.417,5.417,0,0,0,22.6,14.033Z" transform="translate(-4.046 -5.535)"/></g></svg>