<svg xmlns="http://www.w3.org/2000/svg" width="21" height="20" viewBox="0 0 21 20"><defs><style>.a{fill:#fff;}</style></defs><g transform="translate(629 -3526)"><rect class="a" width="1.539" height="16.054" transform="translate(-619.886 3527.539)"/><circle class="a" cx="1.539" cy="1.539" r="1.539" transform="translate(-619.896 3526)"/><path class="a" d="M18.12,28.014a3.106,3.106,0,0,0-6.21.091.311.311,0,0,0,.31.31h5.6a.311.311,0,0,0,.31-.31A.322.322,0,0,0,18.12,28.014Z" transform="translate(-633.514 3517.584)"/><path class="a" d="M20.181,9.518H6.746A.753.753,0,0,1,6,8.759H6A.753.753,0,0,1,6.746,8H20.181a.753.753,0,0,1,.746.759h0A.753.753,0,0,1,20.181,9.518Z" transform="translate(-631.964 3522.349)"/><path class="a" d="M27.209,16.717a.368.368,0,0,0-.031-.154L24.142,9.732a.4.4,0,0,0-.694,0l-3.036,6.831a.368.368,0,0,0-.031.154H20a2.277,2.277,0,0,0,2.277,2.277h3.036a2.277,2.277,0,0,0,2.277-2.277Zm-6.035,0,2.621-5.9,2.621,5.9Z" transform="translate(-635.59 3521.749)"/><path class="a" d="M9.178,16.563,6.142,9.732a.4.4,0,0,0-.694,0L2.412,16.563a.368.368,0,0,0-.031.154H2a2.277,2.277,0,0,0,2.277,2.277H7.313A2.277,2.277,0,0,0,9.59,16.717H9.209A.368.368,0,0,0,9.178,16.563Zm-6,.154L5.8,10.82l2.621,5.9Z" transform="translate(-631 3521.749)"/></g></svg>