<svg xmlns="http://www.w3.org/2000/svg" width="5.708" height="6.848" viewBox="0 0 5.708 6.848"><defs><style>.a{fill:#0053a1;}</style></defs><g transform="translate(0 6.848) rotate(-90)"><path class="a" d="M.16,4.778,2.1,2.853.16.93a.544.544,0,0,1,0-.77.554.554,0,0,1,.778,0L3.264,2.469a.544.544,0,0,1,0,.77L.937,5.548a.554.554,0,0,1-.778,0A.545.545,0,0,1,.16,4.778Z" transform="translate(3.424 0)"/><path class="a" d="M3.265,2.469a.544.544,0,0,1,0,.77L.938,5.548a.554.554,0,0,1-.778,0,.544.544,0,0,1,0-.77L2.1,2.853.16.93a.544.544,0,0,1,0-.77.554.554,0,0,1,.778,0Z" transform="translate(0 0)"/></g></svg>