<svg xmlns="http://www.w3.org/2000/svg" width="5.708" height="6.847" viewBox="0 0 5.708 6.847"><defs><style>.a{fill:#0053a1;}</style></defs><g transform="translate(5.708) rotate(90)"><path class="a" d="M.16.93,2.1,2.854.16,4.778a.544.544,0,0,0,0,.77.554.554,0,0,0,.778,0L3.264,3.239a.544.544,0,0,0,0-.77L.937.159a.554.554,0,0,0-.778,0A.545.545,0,0,0,.16.93Z" transform="translate(3.424 0)"/><path class="a" d="M3.265,3.239a.544.544,0,0,0,0-.77L.938.159a.554.554,0,0,0-.778,0,.544.544,0,0,0,0,.77L2.1,2.854.16,4.778a.544.544,0,0,0,0,.77.554.554,0,0,0,.778,0Z" transform="translate(0 0)"/></g></svg>