<svg xmlns="http://www.w3.org/2000/svg" width="16" height="16" viewBox="0 0 16 16"><defs><style>.a{fill:#fff;stroke:#707070;}.b{fill:#676767;}.c{stroke:none;}.d{fill:none;}</style></defs><g transform="translate(-351 -241.25)"><g class="a" transform="translate(351 241.25)"><circle class="c" cx="8" cy="8" r="8"/><circle class="d" cx="8" cy="8" r="7.5"/></g><path class="b" d="M.9-5.874H2.277V0H.9Zm.693-.968a.883.883,0,0,1-.627-.236.773.773,0,0,1-.253-.589.773.773,0,0,1,.253-.588.883.883,0,0,1,.627-.237.908.908,0,0,1,.627.226.727.727,0,0,1,.253.567.83.83,0,0,1-.247.61A.857.857,0,0,1,1.595-6.842Z" transform="translate(357.285 253.742)"/></g></svg>