<svg xmlns="http://www.w3.org/2000/svg" width="6.996" height="10.226" viewBox="0 0 6.996 10.226"><defs><style>.a{fill:#a11300;}</style></defs><g transform="translate(37.146 -2.5) rotate(90)"><path class="a" d="M15.487,27.1a.361.361,0,0,0,.257.109A.329.329,0,0,0,16,27.1a.4.4,0,0,0,0-.536l-.493-.5h5.129l-.493.5a.4.4,0,0,0,0,.536.357.357,0,0,0,.525,0l1.124-1.148a.375.375,0,0,0,0-.536l-1.124-1.148a.361.361,0,0,0-.257-.109.329.329,0,0,0-.257.109.385.385,0,0,0,0,.536l.493.5H15.519l.493-.5a.4.4,0,0,0,0-.536.357.357,0,0,0-.525,0l-1.124,1.148a.375.375,0,0,0,0,.536Z" transform="translate(-10.465 6)"/><path class="a" d="M12.564,56.609h-.926V55.264a.167.167,0,0,0-.161-.164h-.431a.167.167,0,0,0-.161.164v1.345H9.808V55.8a.167.167,0,0,0-.161-.164H9.216a.167.167,0,0,0-.161.164v.809H7.989V55.8a.167.167,0,0,0-.161-.164H7.4a.167.167,0,0,0-.161.164v.809H6.16V55.8A.167.167,0,0,0,6,55.636H5.568a.167.167,0,0,0-.161.164v.809H4.33V55.264a.167.167,0,0,0-.161-.164H3.738a.167.167,0,0,0-.161.164v1.345H2.661a.167.167,0,0,0-.161.164v.437a.167.167,0,0,0,.161.164h9.9a.167.167,0,0,0,.161-.164v-.437A.167.167,0,0,0,12.564,56.609Z" transform="translate(0 -20.228)"/></g></svg>