<svg xmlns="http://www.w3.org/2000/svg" width="28" height="21" viewBox="0 0 28 21"><defs><style>.a{fill:#adadad;}</style></defs><path class="a" d="M183.412,1024h5.765v4.038h-5.765Zm-1.647,0v4.038H176v-2.423a1.631,1.631,0,0,1,1.647-1.615Zm9.059,0h5.765v4.038h-5.765Zm7.412,0h4.118a1.631,1.631,0,0,1,1.647,1.615v2.423h-5.765Zm-14.824,11.308h5.765v4.039h-5.765Zm-1.647,0v4.039H176v-4.039Zm1.647,9.692v-4.039h5.765V1045Zm-1.647,0h-4.118a1.631,1.631,0,0,1-1.647-1.615v-2.423h5.765Zm9.059-9.692h5.765v4.039h-5.765Zm0,9.692v-4.039h5.765V1045Zm7.412-9.692H204v4.039h-5.765Zm0,9.692v-4.039H204v2.423a1.631,1.631,0,0,1-1.647,1.615ZM176,1033.692v-4.038h28v4.038Z" transform="translate(-176 -1024)"/></svg>