<svg xmlns="http://www.w3.org/2000/svg" width="15.3" height="15.301" viewBox="0 0 15.3 15.301"><defs><style>.a{fill:#376dc8;stroke:#fff;stroke-width:0.3px;}</style></defs><g transform="translate(-2289.85 -9110.85)"><path class="a" d="M59.342,20.452h2.5V19H57.726a.726.726,0,0,0-.726.726v4.113h1.452V21.618a5.548,5.548,0,0,1,2.9,4.882h1.452a6.994,6.994,0,0,0-3.465-6.048Z" transform="translate(2242.194 9092)"/><path class="a" d="M19,24.081a.726.726,0,0,0,.726.726h4.113V23.355H21.618a5.548,5.548,0,0,1,4.882-2.9V19a6.994,6.994,0,0,0-6.048,3.465v-2.5H19Z" transform="translate(2271 9092)"/><path class="a" d="M22.464,56.048h-2.5V57.5h4.113a.726.726,0,0,0,.726-.726V52.661H23.355v2.221A5.548,5.548,0,0,1,20.452,50H19a6.994,6.994,0,0,0,3.465,6.048Z" transform="translate(2271 9068.5)"/><path class="a" d="M55.9,62.806A2.9,2.9,0,1,0,53,59.9,2.9,2.9,0,0,0,55.9,62.806Zm0-4.355A1.452,1.452,0,1,1,54.452,59.9,1.452,1.452,0,0,1,55.9,58.452Z" transform="translate(2245.226 9063.193)"/></g></svg>