<svg xmlns="http://www.w3.org/2000/svg" width="24.767" height="14.694" viewBox="0 0 24.767 14.694"><defs><style>.a{fill:#00a119;}</style></defs><g transform="translate(0 14.694) rotate(-90)"><path class="a" d="M7.3,0A1.538,1.538,0,0,1,8.4.443l5.818,5.817a1.55,1.55,0,0,1-2.191,2.191l-4.7-4.7-4.7,4.7a1.559,1.559,0,0,1-2.191,0A1.516,1.516,0,0,1,0,7.357a1.583,1.583,0,0,1,.443-1.1L6.209.443A1.538,1.538,0,0,1,7.3,0Z" transform="translate(0.026 15.864)"/><path class="a" d="M8.4.45l5.818,5.817a1.55,1.55,0,0,1-2.191,2.191l-4.7-4.7-4.7,4.7a1.559,1.559,0,0,1-2.191,0A1.516,1.516,0,0,1,0,7.363a1.583,1.583,0,0,1,.443-1.1L6.261.45A1.5,1.5,0,0,1,8.4.45Z" transform="translate(0.026 7.927)"/><path class="a" d="M8.426.447l5.818,5.817a1.55,1.55,0,1,1-2.191,2.191l-4.7-4.7L2.635,8.482a1.559,1.559,0,0,1-2.191,0A1.516,1.516,0,0,1,0,7.386a1.583,1.583,0,0,1,.443-1.1L6.261.473A1.5,1.5,0,0,1,8.426.447Z" transform="translate(0 0)"/></g></svg>