<svg xmlns="http://www.w3.org/2000/svg" width="21.479" height="21.425" viewBox="0 0 21.479 21.425"><defs><style>.a{fill:rgba(255,255,255,0.6);}.b,.c{stroke:none;}.c{fill:#376cc8;}</style></defs><g class="a" transform="translate(-48.906 24.839) rotate(-42)"><path class="b" d="M 47.83766174316406 36.3244743347168 C 47.0986442565918 36.31618118286133 46.5 35.71242523193359 46.5 34.97148132324219 L 46.5 23.85307121276855 C 46.5 23.10698127746582 47.10697937011719 22.50000190734863 47.85306930541992 22.50000190734863 C 48.59669876098633 22.50000190734863 49.20214462280273 23.10293197631836 49.20612716674805 23.84564399719238 L 48.89641952514648 33.44657135009766 L 48.87783050537109 34.02284240722656 L 49.450927734375 33.95968246459961 L 59.72650527954102 32.82724380493164 C 60.46094131469727 32.8408088684082 61.05423736572266 33.44245910644531 61.05423736572266 34.18007278442383 C 61.05423736572266 34.92616271972656 60.44725799560547 35.53314971923828 59.70116806030273 35.53314971923828 L 59.68449020385742 35.53314971923828 L 59.66785049438477 35.53425979614258 L 47.83766174316406 36.3244743347168 Z"/><path class="c" d="M 47.85306930541992 23 C 47.3826904296875 23 47 23.3826904296875 47 23.85306930541992 L 47 34.97148895263672 C 47 35.43282318115234 47.36808013916016 35.80981063842773 47.82600021362305 35.82413482666016 L 59.63451766967773 35.03536987304688 L 59.66780853271484 35.03314971923828 L 59.70116806030273 35.03314971923828 C 60.17154693603516 35.03314971923828 60.55423736572266 34.65045928955078 60.55423736572266 34.18006896972656 C 60.55423736572266 33.72461700439453 60.1954460144043 33.35138702392578 59.74567413330078 33.32815551757812 L 49.50569915771484 34.45666885375977 L 48.3594970703125 34.58298873901367 L 48.39667892456055 33.43045043945312 L 48.70605087280273 23.84001922607422 C 48.69903945922852 23.37564086914062 48.31909561157227 23 47.85306930541992 23 M 47.85306930541992 22 C 48.87649917602539 22 49.70615005493164 22.82965087890625 49.70615005493164 23.85306930541992 L 49.39616012573242 33.46268844604492 L 59.70116806030273 32.32701110839844 C 60.72459030151367 32.32701110839844 61.55423736572266 33.15666198730469 61.55423736572266 34.18006896972656 C 61.55423736572266 35.20349884033203 60.72459030151367 36.03314971923828 59.70116806030273 36.03314971923828 L 47.85306930541992 36.82455825805664 C 46.82964706420898 36.82455825805664 46 35.99491119384766 46 34.97148895263672 L 46 23.85306930541992 C 46 22.82965087890625 46.82964706420898 22 47.85306930541992 22 Z"/></g></svg>