<svg xmlns="http://www.w3.org/2000/svg" width="87.777" height="26.592" viewBox="0 0 87.777 26.592"><defs><style>.a{fill:#df3746;}.b{fill:#b6d043;}.c{fill:#f9e15f;}.d{fill:#f4865a;}.e{fill:#fff;}</style></defs><g transform="translate(61.284 0)"><path class="a" d="M404.5,7.6V20.653L391.45,7.6Z" transform="translate(-391.45 -7.6)"/><path class="b" d="M404.5,104.053V91L391.45,104.053Z" transform="translate(-391.45 -77.461)"/><path class="c" d="M474.782,91h13.037L474.75,104.053Z" transform="translate(-461.326 -77.461)"/><path class="d" d="M474.75,20.653V7.6l13.069,13.053Z" transform="translate(-461.326 -7.6)"/></g><path class="e" d="M11.15,49.6h3.062l2.756,6.446L19.723,49.6h3.005V59.768H20.311V54.225c0-.242.048-1.015.064-1.08l-.371,1.08-2.288,5.543H16.081l-2.288-5.543c-.1-.242-.338-.967-.371-1.08,0,.064.064.854.064,1.08v5.543H11.15Z" transform="translate(-11.15 -42.791)"/><path class="e" d="M98.477,73.426l-.064-1.031a3.206,3.206,0,0,1-2.578,1.241c-1.966,0-3.384-1.6-3.384-3.868S93.868,65.9,95.834,65.9a3.206,3.206,0,0,1,2.578,1.241l.064-1.031h2.417v7.316ZM96.7,67.769c-.935,0-1.644.725-1.644,2s.709,2,1.644,2,1.644-.725,1.644-2S97.639,67.769,96.7,67.769Z" transform="translate(-79.349 -56.455)"/><path class="e" d="M149.65,67.2h2.53l1.644,4.19L155.5,67.2h2.449l-3.175,7.316h-1.966Z" transform="translate(-127.331 -57.546)"/><path class="e" d="M209.524,70.141h-4.48c.016.935.564,1.789,2.143,1.789a4.082,4.082,0,0,0,2.321-.774v1.692a5,5,0,0,1-3.11.87A3.86,3.86,0,1,1,206.253,66c1.9,0,3.384,1.144,3.384,2.949A5.261,5.261,0,0,1,209.524,70.141Zm-2.151-1.225a1.062,1.062,0,0,0-1.047-1.434c-.612,0-1.08.371-1.225,1.434Z" transform="translate(-171.623 -56.539)"/><path class="e" d="M259.327,69.851v3.658H256.7V66.193h2.449l.081,1.289A2.825,2.825,0,0,1,261.824,66v2.433C260.543,68.03,259.327,68.611,259.327,69.851Z" transform="translate(-217.13 -56.54)"/><path class="e" d="M294.65,51.4V49.6h2.635v1.8Zm0,8.347V52.436h2.635v7.316Z" transform="translate(-248.965 -42.791)"/><path class="e" d="M319.45,69.751a3.764,3.764,0,0,1,3.9-3.851,4.6,4.6,0,0,1,2.675.725v1.869a2.968,2.968,0,0,0-1.95-.677,1.95,1.95,0,1,0,0,3.9,2.926,2.926,0,0,0,1.95-.693V72.91a4.48,4.48,0,0,1-2.675.725A3.79,3.79,0,0,1,319.45,69.751Z" transform="translate(-269.768 -56.455)"/><path class="e" d="M374.484,59.668,371.777,55.9v3.771H369.15V49.5h2.627v5.962l2.707-3.11h2.659l-2.949,3.255,3.078,4.061Z" transform="translate(-311.459 -42.707)"/></svg>