<svg xmlns="http://www.w3.org/2000/svg" width="69" height="19" viewBox="0 0 69 19"><defs><style>.a{fill:#1caae2;}.a,.b,.c,.d{fill-rule:evenodd;}.b{fill:#75b955;}.c{fill:#f7c821;}.d{fill:#e63e2a;}</style></defs><g transform="translate(-0.001 0)"><g transform="translate(0.001 0)"><g transform="translate(22.177 4.241)"><path class="a" d="M9.372,9.093A7.266,7.266,0,0,0,8.1,8.626a5.567,5.567,0,0,0-1.427-.174A3.019,3.019,0,0,0,4.743,9a1.668,1.668,0,0,0-.68,1.347,1.511,1.511,0,0,0,.654,1.281,2.479,2.479,0,0,0,1.508.48,3.215,3.215,0,0,0,2.281-.921,2.978,2.978,0,0,0,.867-2.095Zm0,3.922H9.159A5.9,5.9,0,0,1,7.678,14.3a4.2,4.2,0,0,1-2.228.534A5.416,5.416,0,0,1,3.542,14.5a4.953,4.953,0,0,1-1.561-.921A4.11,4.11,0,0,1,.941,12.162a4.352,4.352,0,0,1-.374-1.814,4.087,4.087,0,0,1,.4-1.828,4.161,4.161,0,0,1,1.121-1.4,5.063,5.063,0,0,1,1.694-.894A7.037,7.037,0,0,1,5.9,5.918a9.2,9.2,0,0,1,2.108.2q.564.137.992.279a.28.28,0,0,0,.369-.266A2.136,2.136,0,0,0,8.545,4.41a3.128,3.128,0,0,0-2.055-.68A3.838,3.838,0,0,0,3.422,5.251L.887,3.517A6.872,6.872,0,0,1,6.571.9a6.762,6.762,0,0,1,4.643,1.427,5.372,5.372,0,0,1,1.6,4.229V14.4H9.372Z" transform="translate(-0.567 -0.902)"/><path class="a" d="M95.756,3.942h3.976l3.255,8.325h.187l3.282-8.325H110.4l-5.63,13.074h-3.442Z" transform="translate(-82.389 -3.515)"/></g><path class="a" d="M14.955,26.663a8.492,8.492,0,0,1,2.973.454,3.47,3.47,0,0,1,1.817,1.467,5.322,5.322,0,0,1,.61,2.752v8.827H16.487V32.115a2.788,2.788,0,0,0-.143-.909,1.794,1.794,0,0,0-1.207-1.181,3.714,3.714,0,0,0-1.194-.169,3.469,3.469,0,0,0-1.1.169,2.726,2.726,0,0,0-.691.332,8.151,8.151,0,0,1,.055.979v8.827H8.335V32.115a2.788,2.788,0,0,0-.143-.909,1.794,1.794,0,0,0-1.207-1.181,3.712,3.712,0,0,0-1.194-.169,4.062,4.062,0,0,0-1.1.143,4.754,4.754,0,0,0-.818.3v9.866H0V28.142a9.205,9.205,0,0,1,1.3-.532,16.207,16.207,0,0,1,1.765-.48q.961-.207,1.934-.337a13.723,13.723,0,0,1,1.8-.13,8.493,8.493,0,0,1,2.973.454,3.905,3.905,0,0,1,.885.463,12.562,12.562,0,0,1,1.932-.619A10.4,10.4,0,0,1,14.955,26.663Z" transform="translate(-0.001 -22.422)"/><path class="b" d="M383.476,41.263h-3.537a1.847,1.847,0,0,1-1.583-.9l-.463-.771a8.71,8.71,0,0,1-11.63-6.273,8.56,8.56,0,0,1,.63-1.857,8.747,8.747,0,0,1,3.865-4.015,8.623,8.623,0,0,1,3.753-.973,5,5,0,0,0-4.727,4.726l0,.123c0,.046,0,.093,0,.139s0,.093,0,.139l0,.124a4.994,4.994,0,0,0,4.849,4.729h.278l.123,0c.071,0,.14,0,.21-.009l.078,0c.072,0,.145-.009.216-.016s.155-.014.233-.023l.049-.006.14-.019-.032-.052-1.954-3.251h3.538a1.847,1.847,0,0,1,1.583.894l.585.976,1.471,2.446Z" transform="translate(-314.476 -22.263)"/><path class="c" d="M378.535,9.667a5,5,0,0,0-4.849-4.73h-.278l-.122,0a8.623,8.623,0,0,0-3.753.972,8.749,8.749,0,0,0-3.865,4.015,8.571,8.571,0,0,0-.63,1.857,8.7,8.7,0,0,1,6.651-10.363,8.561,8.561,0,0,1,1.857.63,8.727,8.727,0,0,1,4.014,3.863,8.6,8.6,0,0,1,.974,3.752" transform="translate(-313.253 -1.223)"/><path class="d" d="M419.492,4.693a8.6,8.6,0,0,1,.974,3.752c0,.041,0,.081,0,.123s0,.093,0,.139,0,.093,0,.139a5,5,0,0,1-.092.819l2.334,3.884A8.7,8.7,0,0,0,417.336.2a8.734,8.734,0,0,0-3.714,0,8.561,8.561,0,0,1,1.857.63,8.728,8.728,0,0,1,4.014,3.863" transform="translate(-355.185 0)"/></g></g></svg>