<svg xmlns="http://www.w3.org/2000/svg" width="23.637" height="25.749" viewBox="0 0 23.637 25.749"><defs><style>.a{fill:rgba(255,255,255,0.6);stroke:#376cc8;stroke-width:0.5px;}</style></defs><g transform="translate(-1140.75 350.256)"><path class="a" d="M30.394,18.266l-1.754-2.1h0a3.155,3.155,0,0,1-.731-2.019V12.511a7.9,7.9,0,0,0-4.207-7V5.252a3.242,3.242,0,0,0-2.629-3.216,3.155,3.155,0,0,0-3.681,3.113v.358a7.943,7.943,0,0,0-4.207,7v1.633a3.155,3.155,0,0,1-.731,2.019l-1.746,2.1a2.908,2.908,0,0,0,2.232,4.761h3.4a4.207,4.207,0,0,0,8.413,0h3.418a2.892,2.892,0,0,0,2.23-4.761Zm-9.846,6.865a2.1,2.1,0,0,1-2.1-2.1h4.207A2.1,2.1,0,0,1,20.547,25.131Zm8.34-4.667a.789.789,0,0,1-.715.46H12.941a.8.8,0,0,1-.618-1.315l1.746-2.1a5.258,5.258,0,0,0,1.22-3.363V12.511A5.761,5.761,0,0,1,18.8,7.192a1.052,1.052,0,0,0,.7-.991V5.149A1.052,1.052,0,0,1,20.547,4.1a1.089,1.089,0,0,1,.184.016A1.141,1.141,0,0,1,21.6,5.262V6.2a1.052,1.052,0,0,0,.686.986,5.693,5.693,0,0,1,3.521,5.324v1.633a5.279,5.279,0,0,0,1.217,3.363l1.754,2.1a.789.789,0,0,1,.11.854Z" transform="translate(1132.021 -351.992)"/><path class="a" d="M7.052,22.419A1.052,1.052,0,0,0,8.1,21.367a9.354,9.354,0,0,1,1.577-5.2l.355-.526a1.052,1.052,0,1,0-1.751-1.167L7.932,15A11.421,11.421,0,0,0,6,21.367a1.052,1.052,0,0,0,1.052,1.052Z" transform="translate(1135 -360.848)"/><path class="a" d="M82.2,21.375a11.421,11.421,0,0,0-1.927-6.363l-.352-.526a1.052,1.052,0,1,0-1.751,1.167l.355.526a9.355,9.355,0,0,1,1.572,5.2,1.052,1.052,0,1,0,2.1,0Z" transform="translate(1081.932 -360.856)"/></g></svg>