<svg xmlns="http://www.w3.org/2000/svg" width="16.021" height="16.018" viewBox="0 0 16.021 16.018"><defs><style>.a{fill:rgba(255,255,255,0.6);}</style></defs><path class="a" d="M15.919,17.79a2.061,2.061,0,0,1-1.47-.609L12.618,15.35a2.047,2.047,0,0,1-.39-2.387c-.008,0-.022-.012-.03-.02l-1.027-1.034a5.678,5.678,0,1,1,.944-.944l1.025,1.024c.008.01.012.022.02.03a2.047,2.047,0,0,1,2.39.385l1.831,1.831a2.077,2.077,0,0,1-1.463,3.555ZM7.676,3.142A4.328,4.328,0,1,0,12,7.47,4.328,4.328,0,0,0,7.676,3.142Zm8.771,12.041-1.831-1.831a.747.747,0,0,0-1.057,1.057l1.831,1.831a.747.747,0,1,0,1.057-1.057Z" transform="translate(-1.979 -1.773)"/><path class="a" d="M61.329,19.332H61A1.665,1.665,0,0,0,59.332,21v.333a.666.666,0,0,1-1.332,0V21a3,3,0,0,1,3-3h.333a.666.666,0,1,1,0,1.332Z" transform="translate(-55.299 -15.299)"/></svg>