<svg xmlns="http://www.w3.org/2000/svg" width="24.742" height="24.742" viewBox="0 0 24.742 24.742"><defs><style>.a{fill:rgba(255,255,255,0.6);}</style></defs><g transform="translate(6.766 6.766)"><path class="a" d="M145.606,140a5.606,5.606,0,1,0,1.693,10.951.967.967,0,0,0-.583-1.843,3.668,3.668,0,1,1,2.416-2.469.967.967,0,0,0,1.855.543A5.61,5.61,0,0,0,145.606,140Z" transform="translate(-140 -140)"/></g><path class="a" d="M21.843,8.989h-.487a.322.322,0,0,1-.294-.2l-.009-.021a.324.324,0,0,1,.063-.355l.344-.344a2.9,2.9,0,0,0,0-4.1l-.683-.683a2.9,2.9,0,0,0-4.1,0l-.344.344a.324.324,0,0,1-.355.064l-.018-.008a.323.323,0,0,1-.205-.3V2.9a2.9,2.9,0,0,0-2.9-2.9h-.967a2.9,2.9,0,0,0-2.9,2.9v.487a.322.322,0,0,1-.2.3l-.019.008a.324.324,0,0,1-.355-.063l-.344-.344a2.9,2.9,0,0,0-4.1,0l-.683.683a2.9,2.9,0,0,0,0,4.1l.344.344a.326.326,0,0,1,.062.359l-.006.014a.323.323,0,0,1-.3.205H2.9a2.9,2.9,0,0,0-2.9,2.9v.967a2.9,2.9,0,0,0,2.9,2.9h.487a.322.322,0,0,1,.294.2l.009.021a.324.324,0,0,1-.063.355l-.344.344a2.9,2.9,0,0,0,0,4.1l.683.683a2.9,2.9,0,0,0,4.1,0l.344-.344a.324.324,0,0,1,.355-.064l.018.008a.323.323,0,0,1,.205.3v.487a2.9,2.9,0,0,0,2.9,2.9h.966a2.9,2.9,0,0,0,2.9-2.9v-.487a.322.322,0,0,1,.2-.3l.019-.008a.324.324,0,0,1,.355.063l.344.344a2.9,2.9,0,0,0,4.1,0l.683-.683a2.9,2.9,0,0,0,0-4.1l-.344-.344a.324.324,0,0,1-.063-.355l.007-.018a.323.323,0,0,1,.3-.205h.487a2.9,2.9,0,0,0,2.9-2.9v-.967A2.9,2.9,0,0,0,21.843,8.989Zm.966,3.866a.968.968,0,0,1-.966.967h-.487a2.25,2.25,0,0,0-2.082,1.4l-.006.015A2.251,2.251,0,0,0,19.75,17.7l.344.344a.967.967,0,0,1,0,1.367l-.683.683a.967.967,0,0,1-1.367,0L17.7,19.75a2.251,2.251,0,0,0-2.464-.481l-.014.006a2.25,2.25,0,0,0-1.4,2.082v.487a.968.968,0,0,1-.967.966h-.967a.968.968,0,0,1-.967-.966v-.487a2.25,2.25,0,0,0-1.4-2.083l-.013-.005a2.282,2.282,0,0,0-.876-.176,2.24,2.24,0,0,0-1.587.657l-.344.344a.967.967,0,0,1-1.367,0l-.683-.683a.966.966,0,0,1,0-1.367l.344-.344a2.251,2.251,0,0,0,.482-2.463l-.006-.015a2.25,2.25,0,0,0-2.082-1.4H2.9a.968.968,0,0,1-.967-.967v-.967a.968.968,0,0,1,.967-.967h.487a2.251,2.251,0,0,0,2.084-1.4l0-.011a2.251,2.251,0,0,0-.482-2.464L4.649,6.7a.968.968,0,0,1,0-1.367l.683-.683a.967.967,0,0,1,1.367,0l.344.344a2.251,2.251,0,0,0,2.464.481l.014-.006a2.25,2.25,0,0,0,1.4-2.082V2.9a.968.968,0,0,1,.967-.967h.967a.968.968,0,0,1,.967.967v.487a2.25,2.25,0,0,0,1.4,2.083l.013.005A2.251,2.251,0,0,0,17.7,4.993l.344-.344a.967.967,0,0,1,1.367,0l.683.683a.968.968,0,0,1,0,1.367l-.344.344a2.249,2.249,0,0,0-.483,2.46l.007.018a2.25,2.25,0,0,0,2.082,1.4h.487a.968.968,0,0,1,.966.967Z"/></svg>